<svg width="16" height="16" viewBox="0 0 16 16" fill="none" xmlns="http://www.w3.org/2000/svg">
<path d="M14.9992 7.66928C14.9933 7.57967 14.9654 7.49048 14.916 7.40817L12.2913 3.03315C12.1859 2.85738 11.9963 2.75 11.7912 2.75H4.20874C4.00368 2.75 3.814 2.85738 3.70864 3.03312L1.08393 7.40815C1.03455 7.49045 1.00669 7.57957 1.00078 7.66917C0.998921 7.68251 1.00078 12.0834 1.00078 12.0834C1.00075 12.7268 1.52422 13.2501 2.1673 13.2501H13.8327C14.4757 13.2501 14.9992 12.7268 14.9992 12.0834C14.9992 12.0834 15.001 7.68262 14.9992 7.66928ZM12.0828 7.41671C11.4398 7.41671 10.9163 7.93993 10.9163 8.58339C10.9163 8.90495 10.6549 9.16672 10.333 9.16672H5.6669C5.34509 9.16672 5.08363 8.90495 5.08363 8.58339C5.08363 7.93996 4.56016 7.41671 3.91709 7.41671H2.43923L4.53908 3.91668H11.4608L13.5607 7.41671H12.0828Z" fill="#2F3441"/>
</svg>
