<svg width="32" height="32" viewBox="0 0 32 32" fill="none" xmlns="http://www.w3.org/2000/svg">
<path d="M23.4142 14.5858C24.1953 15.3668 24.1953 16.6332 23.4142 17.4142C22.6332 18.1953 21.3668 18.1953 20.5858 17.4142C19.8047 16.6332 19.8047 15.3668 20.5858 14.5858C21.3668 13.8047 22.6332 13.8047 23.4142 14.5858Z" fill="#2F3441"/>
<path d="M17.4142 14.5858C18.1952 15.3668 18.1952 16.6332 17.4142 17.4142C16.6332 18.1953 15.3668 18.1953 14.5858 17.4142C13.8047 16.6332 13.8047 15.3668 14.5858 14.5858C15.3668 13.8047 16.6332 13.8047 17.4142 14.5858Z" fill="#2F3441"/>
<path d="M11.4142 14.5858C12.1953 15.3668 12.1953 16.6332 11.4142 17.4142C10.6332 18.1953 9.36683 18.1953 8.58578 17.4142C7.80474 16.6332 7.80474 15.3668 8.58578 14.5858C9.36683 13.8047 10.6332 13.8047 11.4142 14.5858Z" fill="#2F3441"/>
</svg>
