<svg width="11" height="10" viewBox="0 0 11 10" fill="none" xmlns="http://www.w3.org/2000/svg">
<path fill-rule="evenodd" clip-rule="evenodd" d="M0.968597 5C0.968597 2.23858 3.20717 0 5.9686 0C8.73002 0 10.9686 2.23858 10.9686 5C10.9686 7.76142 8.73002 10 5.9686 10C3.20717 10 0.968597 7.76142 0.968597 5ZM5.9686 1C6.52088 1 6.9686 1.44772 6.9686 2V5C6.9686 5.55228 6.52088 6 5.9686 6C5.41631 6 4.9686 5.55228 4.9686 5V2C4.9686 1.44772 5.41631 1 5.9686 1ZM5.9686 9C6.52088 9 6.9686 8.55229 6.9686 8C6.9686 7.44772 6.52088 7 5.9686 7C5.41631 7 4.9686 7.44772 4.9686 8C4.9686 8.55229 5.41631 9 5.9686 9Z" fill="#E00004"/>
</svg>
