<svg width="24" height="24" viewBox="0 0 24 24" fill="none" xmlns="http://www.w3.org/2000/svg">
<path d="M8.68133 6.99886C8.32221 6.99886 8.03109 7.28974 8.03109 7.64856C8.03109 8.00738 8.32221 8.29826 8.68133 8.29826H15.3838C15.7429 8.29826 16.034 8.00738 16.034 7.64856C16.034 7.28974 15.7429 6.99886 15.3838 6.99886H8.68133Z" fill="#D6D8DE"/>
<path d="M8.03109 10.6472C8.03109 10.2883 8.32221 9.99747 8.68133 9.99747H15.3837C15.7429 9.99747 16.034 10.2883 16.034 10.6472C16.034 11.006 15.7429 11.2969 15.3837 11.2969H8.68133C8.32221 11.2969 8.03109 11.006 8.03109 10.6472Z" fill="#D6D8DE"/>
<path d="M8.68133 12.9961C8.32221 12.9961 8.03109 13.287 8.03109 13.6458C8.03109 14.0046 8.32221 14.2955 8.68133 14.2955H11.8825C12.2416 14.2955 12.5327 14.0046 12.5327 13.6458C12.5327 13.287 12.2416 12.9961 11.8825 12.9961H8.68133Z" fill="#D6D8DE"/>
<path fill-rule="evenodd" clip-rule="evenodd" d="M5.03754 19.3936C5.03754 20.6536 6.42787 21.4187 7.49361 20.7453L9.44698 19.511L11.0552 20.6909C11.6189 21.1045 12.3861 21.1045 12.9499 20.6909L14.5647 19.5061L16.5842 20.7581C17.6504 21.4191 19.0286 20.6529 19.0286 19.3991L19.0375 5.59989C19.0375 4.16462 17.8731 3.0011 16.4366 3.0011H7.6474C6.21094 3.0011 5.04646 4.16462 5.04646 5.59989L5.03754 19.3936ZM7.6474 4.30049C6.92917 4.30049 6.34693 4.88226 6.34693 5.59989L6.338 19.3936C6.338 19.6299 6.59869 19.7733 6.79852 19.6471L9.09793 18.1941C9.34144 18.0402 9.65442 18.0511 9.88666 18.2215L11.8249 19.6435C11.9306 19.7211 12.0745 19.7211 12.1802 19.6435L14.122 18.2189C14.3524 18.0498 14.6626 18.0377 14.9056 18.1883L17.2698 19.6539C17.4697 19.7779 17.7281 19.6342 17.7281 19.3991L17.7371 5.59989C17.7371 4.88225 17.1548 4.30049 16.4366 4.30049H7.6474Z" fill="#D6D8DE"/>
</svg>
