<svg width="24" height="24" viewBox="0 0 24 24" fill="none" xmlns="http://www.w3.org/2000/svg">
<path fill-rule="evenodd" clip-rule="evenodd" d="M19.028 18.6972V10.9909C19.028 9.91399 18.1549 9.04094 17.078 9.04094C16.001 9.04094 15.128 9.91399 15.128 10.9909L15.128 18.6972H13.95V15.5534C13.95 14.4765 13.0769 13.6034 12 13.6034C10.923 13.6034 10.05 14.4765 10.05 15.5534V18.6972H8.87185L8.87185 12.9909C8.87185 11.914 7.9988 11.0409 6.92185 11.0409C5.84489 11.0409 4.97185 11.914 4.97185 12.9909L4.97185 18.6972H3.93357C3.57458 18.6972 3.28357 18.9882 3.28357 19.3472C3.28357 19.7062 3.57458 19.9972 3.93357 19.9972H5.92137C5.92153 19.9972 5.92121 19.9972 5.92137 19.9972H7.92185C7.92207 19.9972 7.92162 19.9972 7.92185 19.9972H10.9991C10.9994 19.9972 10.9988 19.9972 10.9991 19.9972H13C13.0003 19.9972 13.0007 19.9972 13.001 19.9972H16.0768C16.0772 19.9972 16.0776 19.9972 16.078 19.9972H18.078C18.0784 19.9972 18.0788 19.9972 18.0792 19.9972H20.0664C20.4254 19.9972 20.7164 19.7062 20.7164 19.3472C20.7164 18.9882 20.4254 18.6972 20.0664 18.6972H19.028ZM17.728 18.6972V10.9909C17.728 10.632 17.437 10.3409 17.078 10.3409C16.719 10.3409 16.428 10.632 16.428 10.9909V18.6972H17.728ZM6.27185 18.6972L6.27185 12.9909C6.27185 12.632 6.56286 12.3409 6.92185 12.3409C7.28083 12.3409 7.57185 12.632 7.57185 12.9909V18.6972H6.27185ZM11.35 18.6972H12.65V15.5534C12.65 15.1945 12.359 14.9034 12 14.9034C11.641 14.9034 11.35 15.1945 11.35 15.5534V18.6972Z" fill="#D6D8DE"/>
<path fill-rule="evenodd" clip-rule="evenodd" d="M19.078 5.69092C19.078 6.79549 18.1825 7.69092 17.078 7.69092C16.7418 7.69092 16.425 7.60798 16.1469 7.46145L13.8605 9.58062C13.8547 9.56614 13.8489 9.55174 13.8428 9.53743C13.944 9.7767 14 10.0398 14 10.3159C14 11.4205 13.1045 12.3159 12 12.3159C10.8954 12.3159 9.99997 11.4205 9.99997 10.3159C9.99997 10.2509 10.0031 10.1866 10.0091 10.1232L8.25492 9.18188C7.90112 9.49844 7.43396 9.69092 6.92184 9.69092C5.81727 9.69092 4.92184 8.79549 4.92184 7.69092C4.92184 6.58635 5.81727 5.69092 6.92184 5.69092C8.02641 5.69092 8.92184 6.58635 8.92184 7.69092C8.92184 7.81259 8.91098 7.93173 8.89016 8.04741L10.5502 8.93817C10.5178 8.97224 10.4866 9.00745 10.4567 9.04373C10.8235 8.59924 11.3786 8.31592 12 8.31592C12.3703 8.31592 12.7172 8.41659 13.0147 8.59206C13.0147 8.59206 13.0147 8.59206 13.0147 8.59206L15.2553 6.51538C15.1414 6.26399 15.078 5.98486 15.078 5.69092C15.078 4.58635 15.9734 3.69092 17.078 3.69092C18.1825 3.69092 19.078 4.58635 19.078 5.69092ZM17.778 5.69092C17.778 6.07752 17.4646 6.39092 17.078 6.39092C16.6914 6.39092 16.378 6.07752 16.378 5.69092C16.378 5.30432 16.6914 4.99092 17.078 4.99092C17.4646 4.99092 17.778 5.30432 17.778 5.69092ZM7.62184 7.69092C7.62184 8.07752 7.30844 8.39092 6.92184 8.39092C6.53524 8.39092 6.22184 8.07752 6.22184 7.69092C6.22184 7.30432 6.53524 6.99092 6.92184 6.99092C7.30844 6.99092 7.62184 7.30432 7.62184 7.69092ZM12 11.0159C12.3866 11.0159 12.7 10.7025 12.7 10.3159C12.7 9.92932 12.3866 9.61592 12 9.61592C11.6134 9.61592 11.3 9.92932 11.3 10.3159C11.3 10.7025 11.6134 11.0159 12 11.0159Z" fill="#D6D8DE"/>
</svg>
