<svg width="16" height="16" viewBox="0 0 16 16" fill="none" xmlns="http://www.w3.org/2000/svg">
<g clip-path="url(#clip0)">
<path d="M7.78407 0C10.5517 0 13.2764 1.27461 13.2764 4.32337C13.2764 7.13487 10.0547 8.21609 9.36279 9.23201C8.84336 9.98769 9.01684 11.0495 7.58967 11.0495C6.65998 11.0495 6.20586 10.2933 6.20586 9.60143C6.20586 7.02669 9.98887 6.44398 9.98887 4.32388C9.98887 3.15693 9.21227 2.46503 7.91419 2.46503C5.14657 2.46503 6.22729 5.31837 4.13117 5.31837C3.37447 5.31837 2.72491 4.86424 2.72491 3.99987C2.7244 1.87926 5.14555 0 7.78407 0ZM7.67641 12.4532C8.64793 12.4532 9.44954 13.2523 9.44954 14.2269C9.44954 15.2015 8.64946 16.0005 7.67641 16.0005C6.70336 16.0005 5.90277 15.2025 5.90277 14.2269C5.90277 13.2528 6.70336 12.4532 7.67641 12.4532Z" fill="#2F3441"/>
</g>
<defs>
<clipPath id="clip0">
<rect width="16" height="16" fill="white"/>
</clipPath>
</defs>
</svg>
