<svg width="24" height="24" viewBox="0 0 24 24" fill="none" xmlns="http://www.w3.org/2000/svg">
<path d="M10.7985 7.55005C11.0705 7.78437 11.101 8.1948 10.8667 8.46676L9.29324 10.2929C9.17798 10.4267 9.01326 10.5078 8.83695 10.5176C8.66065 10.5274 8.48794 10.4651 8.35854 10.345L7.17846 9.24927C6.91538 9.00501 6.90013 8.59374 7.14439 8.33067C7.38865 8.06759 7.79993 8.05234 8.063 8.2966L8.74872 8.93329L9.88183 7.61819C10.1162 7.34623 10.5266 7.31572 10.7985 7.55005Z" fill="#D6D8DE"/>
<path d="M12.4101 8.95554C12.4101 9.31453 12.7011 9.60554 13.0601 9.60554L15.35 9.60554C15.709 9.60554 16 9.31452 16 8.95554C16 8.59655 15.709 8.30554 15.35 8.30554L13.0601 8.30554C12.7011 8.30554 12.4101 8.59656 12.4101 8.95554Z" fill="#D6D8DE"/>
<path d="M13.0601 15.7239C12.7011 15.7239 12.4101 15.4329 12.4101 15.0739C12.4101 14.7149 12.7011 14.4239 13.0601 14.4239L15.35 14.4239C15.709 14.4239 16 14.7149 16 15.0739C16 15.4329 15.709 15.7239 15.35 15.7239L13.0601 15.7239Z" fill="#D6D8DE"/>
<path fill-rule="evenodd" clip-rule="evenodd" d="M6.99744 14.3739C6.99744 13.6559 7.57947 13.0739 8.29744 13.0739H9.69744C10.4154 13.0739 10.9974 13.6559 10.9974 14.3739V15.7739C10.9974 16.4919 10.4154 17.0739 9.69744 17.0739H8.29744C7.57947 17.0739 6.99744 16.4919 6.99744 15.7739V14.3739ZM8.29744 14.3739H9.69744V15.7739H8.29744V14.3739Z" fill="#D6D8DE"/>
<path fill-rule="evenodd" clip-rule="evenodd" d="M20.39 8.82489C21.2283 8.82489 21.2283 7.52489 20.39 7.52489H19V6.03491C19 4.37491 17.66 3.03491 16 3.03491H7C5.34 3.03491 4 4.37491 4 6.03491V17.9999C4 19.6599 5.34 20.9999 7 20.9999H16C17.66 20.9999 19 19.6499 19 17.9999V16.4999H20.39C20.749 16.4999 21.04 16.2089 21.04 15.8499C21.04 15.491 20.749 15.1999 20.39 15.1999H19V8.82489H20.39ZM16 4.33491C16.94 4.33491 17.7 5.09491 17.7 6.03491L17.7 17.9999C17.7 18.9399 16.94 19.6999 16 19.6999H7C6.06 19.6999 5.3 18.9399 5.3 17.9999L5.3 6.03491C5.3 5.09491 6.06 4.33491 7 4.33491L16 4.33491Z" fill="#D6D8DE"/>
</svg>
