<svg width="156" height="250" viewBox="0 0 156 250" fill="none" xmlns="http://www.w3.org/2000/svg">
<g clip-path="url(#clip0)">
<path d="M16.9207 56.3029C20.0357 53.324 26.0146 50 26.0146 50C26.0146 50 29.894 51.2083 32.4217 51.8299C35.6159 52.6153 37.4475 52.888 40.6889 53.4564C43.7459 53.9925 45.4557 54.3475 48.5428 54.6763C55.3636 55.4029 59.2849 55.3564 66.1106 54.6763C69.3085 54.3578 71.1091 54.0376 74.2299 53.4827L74.3779 53.4564C77.4623 52.9081 79.2278 52.7101 82.2317 51.8299C84.2871 51.2276 87.3987 50 87.3987 50C87.3987 50 93.4066 53.295 96.4927 56.3029C99.2793 59.0189 100.615 60.8409 102.486 64.2324C104.375 67.6545 106 73.5851 106 73.5851V97.1701C106 97.1701 104.403 98.011 103.313 98.39C102.446 98.6919 101.04 99 101.04 99H12.167C12.167 99 10.8984 98.6558 10.1002 98.39C8.86509 97.9787 7 97.1701 7 97.1701L7.41336 73.5851C7.41336 73.5851 8.85501 67.6364 10.7203 64.2324C12.6047 60.7933 14.073 59.0261 16.9207 56.3029Z" fill="#F3F4F6"/>
<path d="M16.1414 158.025C15.8233 154.515 16.1414 149 16.1414 149H100.829C100.829 149 101.214 154.521 100.829 158.025C100.407 161.868 99.9225 164.04 98.579 167.664C96.8839 172.237 95.5156 174.754 92.4422 178.535C89.6551 181.964 87.7253 183.669 84.0552 186.124C81.4986 187.834 79.9973 188.788 77.1002 189.816C74.6333 190.691 73.1329 190.805 70.5543 191.251C60.6356 192.97 54.4286 194.125 44.7797 191.251C43.1571 190.768 42.2678 190.427 40.6885 189.816C37.4873 188.577 35.6101 187.964 32.7107 186.124C28.9828 183.758 27.1359 181.943 24.3238 178.535C21.1972 174.746 19.6086 172.304 17.9824 167.664C16.715 164.048 16.4873 161.842 16.1414 158.025Z" fill="#6FA3FF"/>
<path d="M16 141.877V127.828H14.9863V124.109C14.9863 124.109 12.6192 123.863 11.1343 124.109C9.65151 124.355 8.78932 124.589 7.48503 125.349C5.73514 126.368 4.93357 127.345 3.83576 129.068C2.77062 130.739 2.21385 132.167 2.01112 133.82C1.8084 135.472 4.44397 172.455 4.44397 172.455C4.44397 172.455 7.01858 177 9.71514 177C12.4117 177 14.9863 172.455 14.9863 172.455V141.877H16Z" fill="#9A9EA5"/>
<path d="M101 128.107L101 142.169L102.026 142.169L102.026 145.891C102.026 145.891 104.421 146.137 105.924 145.891C107.424 145.645 108.296 145.41 109.616 144.65C111.387 143.63 113.5 142.685 113.5 142.685L117.667 140.928L151 128.107C151 128.107 145.312 117 142.584 117C139.855 117 137.25 121.549 137.25 121.549L102.026 128.107L101 128.107Z" fill="#9A9EA5"/>
<path d="M97.5181 121.707C99.597 123.657 101 128.163 101 128.163V149.406C101 149.406 95.0438 156.077 90.3494 159.194C86.0646 162.039 83.3479 163.244 78.4699 164.817C70.5036 167.385 65.5244 167.046 57.1687 166.899C50.0856 166.775 45.911 166.95 39.1446 164.817C34.2568 163.276 31.5925 161.971 27.2651 159.194C22.3715 156.053 16 149.406 16 149.406V128.163C16 128.163 16.9231 123.642 18.8675 121.707C20.5805 120.003 24.3976 119 24.3976 119H92.6024C92.6024 119 95.9131 120.202 97.5181 121.707Z" fill="#F3F4F6"/>
<rect x="33" y="115" width="50" height="4" fill="#B1B5BB"/>
<path d="M7.21992 103.186C6.7251 100.829 7.21992 97 7.21992 97H105.786C105.786 97 106.268 100.826 105.786 103.186C105.035 106.857 103.585 108.764 101.053 111.36C98.5804 113.896 93.4392 116 93.4392 116H21.0068C21.0068 116 15.0082 114.133 12.1585 111.36C9.53215 108.806 7.99928 106.898 7.21992 103.186Z" fill="#D6D8DE"/>
<path d="M30.9459 47.7802C28.9728 48.4487 26 49.7582 26 49.7582L57.5304 64L87 49.7582C87 49.7582 84.151 48.4579 82.2601 47.7802C79.8987 46.9339 76.0777 46 76.0777 46H37.7466C37.7466 46 33.5418 46.9008 30.9459 47.7802Z" fill="#D6D8DE"/>
<path d="M6.97981 95.2317V73.1395H6.3604V51.0474H4.50218V73.7589C4.50218 73.7589 3.33555 74.0512 2.85043 74.5848C2.48659 74.985 2.45629 75.3319 2.23102 75.8236C-0.522639 81.8347 -0.956798 86.9616 2.23102 92.7541C2.59778 93.4205 2.71799 93.8756 3.26337 94.4058C3.68024 94.8112 3.95995 95.0218 4.50218 95.2317C5.40451 95.581 6.97981 95.2317 6.97981 95.2317Z" fill="#6FA3FF"/>
<circle cx="5.32828" cy="48.1568" r="3.09703" fill="#6FA3FF"/>
<path d="M106.498 95.2317V73.1395H107.117V51.0474H108.975V73.7589C108.975 73.7589 110.141 74.0512 110.627 74.5848C110.99 74.985 111.021 75.3319 111.246 75.8236C113.999 81.8347 114.433 86.9616 111.246 92.7541C110.879 93.4205 110.759 93.8756 110.214 94.4058C109.797 94.8112 109.517 95.0218 108.975 95.2317C108.073 95.581 106.498 95.2317 106.498 95.2317Z" fill="#6FA3FF"/>
<ellipse rx="3.0966" ry="3.09703" transform="matrix(-1 0 0 1 108.149 48.1568)" fill="#6FA3FF"/>
<circle cx="56.9454" cy="29.1617" r="5.16172" fill="#1BA049"/>
<rect x="55.0872" y="33.0846" width="3.71644" height="10.3234" fill="#1BA049"/>
<path d="M53.6418 43.821C54.182 43.5913 54.5176 43.5505 55.0871 43.4081C56.7389 42.9952 57.1518 42.9951 58.8036 43.4081C59.2248 43.5134 59.6486 43.6381 60.0424 43.821C60.9958 44.2639 62.1071 45.2663 62.1071 45.2663L51.5771 45.2663C51.5771 45.2663 52.7361 44.2062 53.6418 43.821Z" fill="#1BA049"/>
<path d="M69.9593 102H45.0411C45.0411 102 44.9487 103.312 45.0411 104.143C45.6856 109.939 51.969 110.961 57.4005 110.999C62.9013 111.037 69.3115 110.014 69.9593 104.143C70.0509 103.312 69.9593 102 69.9593 102Z" fill="#22242A"/>
<path d="M23.5784 73.2195C25.6267 70.8253 29.5698 68.7875 31.8412 67.7448C32.9708 67.2263 34.2054 67 35.4483 67H79.5517C80.7946 67 82.0292 67.2263 83.1588 67.7448C85.4302 68.7875 89.3733 70.8253 91.4216 73.2195C94.3982 76.6986 96 84 96 84H19C19 84 20.6018 76.6986 23.5784 73.2195Z" fill="#696C73"/>
<path d="M23.8309 93.3656C26.3183 95 33.7808 95 33.7808 95H81.4573C81.4573 95 88.9197 95 91.1999 93.3656C93.48 91.7312 93.0573 92.0591 93.8946 90.914C94.678 89.8425 94.9405 89.1083 95.3456 87.8495C95.8165 86.3866 96.0996 85.4969 95.9675 83.9677C95.6913 80.77 93.8946 78.4516 91.1999 77.2258C88.5051 76 81.25 76 81.25 76H33.7808C33.7808 76 26.5256 76.2043 23.8309 77.2258C21.1361 78.2474 19.8698 80.859 19.2705 83.9677C18.9834 85.457 18.843 86.3933 19.2705 87.8495C19.6641 89.1901 20.2434 89.8306 21.1361 90.914C22.039 92.0097 21.3434 91.7312 23.8309 93.3656Z" fill="#22242A"/>
<circle cx="39.6015" cy="80.7787" r="8.46523" fill="#0062FF"/>
<circle cx="39.6014" cy="80.7787" r="6.40054" fill="#22242A"/>
<circle cx="39.6016" cy="80.7787" r="5.16172" fill="#696C73"/>
<circle cx="41.6662" cy="77.8881" r="1.85822" fill="white"/>
<circle cx="74.2885" cy="80.7787" r="8.46523" fill="#0062FF"/>
<circle cx="74.2884" cy="80.7787" r="6.40054" fill="#22242A"/>
<circle cx="74.2886" cy="80.7787" r="5.16172" fill="#696C73"/>
<circle cx="76.3533" cy="77.8881" r="1.85822" fill="white"/>
<path d="M106.995 122C106.655 122.334 106.46 122.789 106.453 123.266C106.446 123.743 106.628 124.203 106.958 124.547L118.401 136.39C118.568 136.563 118.767 136.7 118.987 136.795C119.207 136.889 119.443 136.939 119.683 136.941C119.922 136.944 120.16 136.898 120.381 136.808C120.603 136.718 120.805 136.584 120.975 136.415L155.892 101.649C156.082 101.459 156.228 101.229 156.319 100.976C156.409 100.722 156.441 100.451 156.414 100.184C156.386 99.916 156.299 99.6578 156.159 99.4281C156.018 99.1983 155.829 99.0029 155.603 98.8559L141.873 89.9131C141.529 89.6871 141.119 89.5858 140.71 89.6261C140.301 89.6663 139.918 89.8457 139.625 90.1343L106.995 122Z" fill="#3F3D56"/>
<path d="M156.131 99.384C156.062 99.4904 155.982 99.5892 155.892 99.6789L121.057 135.102C120.887 135.271 120.685 135.404 120.464 135.494C120.242 135.585 120.004 135.63 119.765 135.628C119.525 135.625 119.289 135.576 119.069 135.481C118.849 135.386 118.65 135.249 118.483 135.077L106.794 122.741C106.715 122.658 106.643 122.568 106.581 122.472C106.132 123.161 106.364 123.932 106.959 124.547L118.401 136.39C118.568 136.563 118.767 136.7 118.987 136.795C119.207 136.889 119.443 136.939 119.683 136.941C119.922 136.944 120.16 136.898 120.382 136.808C120.603 136.718 120.805 136.584 120.975 136.415L155.892 101.649C156.186 101.357 156.37 100.972 156.413 100.559C156.457 100.147 156.357 99.7317 156.131 99.384Z" fill="#0062FF"/>
<path d="M152.898 99.8125L151.477 98.9065C151.627 99.1732 151.682 99.4827 151.633 99.7847C151.584 100.087 151.435 100.363 151.209 100.569C150.983 100.775 150.694 100.899 150.389 100.92C150.084 100.941 149.781 100.858 149.529 100.684L140.334 94.3625C140.125 94.2191 139.96 94.0198 139.859 93.7874C139.758 93.5549 139.724 93.2987 139.761 93.048C139.798 92.7972 139.905 92.562 140.07 92.3691C140.234 92.1762 140.45 92.0334 140.691 91.957L139.959 91.4902C139.864 91.4296 139.752 91.4035 139.64 91.416C139.528 91.4286 139.423 91.4792 139.344 91.5593L108.412 121.958C108.366 122.004 108.329 122.06 108.305 122.121C108.28 122.182 108.268 122.247 108.27 122.313C108.271 122.378 108.285 122.443 108.312 122.503C108.338 122.563 108.376 122.617 108.424 122.662L119.658 133.608C119.751 133.696 119.875 133.744 120.003 133.743C120.131 133.741 120.253 133.689 120.344 133.599L152.981 100.577C153.033 100.525 153.073 100.461 153.098 100.392C153.122 100.322 153.131 100.248 153.123 100.175C153.115 100.101 153.091 100.031 153.052 99.968C153.013 99.9053 152.96 99.8521 152.898 99.8125Z" fill="white"/>
<path d="M117.197 115.245L126.686 124.192L149.257 101.893L137.802 94.4371L117.197 115.245Z" fill="#E6E6E6"/>
<path d="M148.38 107.396C148.442 107.456 148.526 107.489 148.612 107.489C148.698 107.489 148.782 107.456 148.844 107.396L150.818 105.422C150.879 105.361 150.914 105.277 150.914 105.19C150.914 105.103 150.879 105.02 150.818 104.958C150.755 104.898 150.672 104.865 150.586 104.865C150.499 104.865 150.416 104.898 150.354 104.958L148.38 106.932C148.318 106.993 148.284 107.077 148.284 107.164C148.284 107.251 148.318 107.335 148.38 107.396Z" fill="#3F3D56"/>
<path d="M145.055 110.721C145.117 110.783 145.2 110.817 145.287 110.817C145.374 110.817 145.458 110.783 145.519 110.721L147.493 108.747C147.555 108.686 147.589 108.602 147.589 108.515C147.589 108.428 147.554 108.345 147.493 108.283C147.431 108.222 147.348 108.187 147.261 108.187C147.174 108.187 147.09 108.222 147.029 108.283L145.055 110.257C144.993 110.318 144.959 110.402 144.959 110.489C144.959 110.576 144.993 110.66 145.055 110.721Z" fill="#3F3D56"/>
<path d="M117.417 125.142C118.641 125.142 119.633 124.149 119.633 122.925C119.633 121.701 118.641 120.708 117.417 120.708C116.192 120.708 115.2 121.701 115.2 122.925C115.2 124.149 116.192 125.142 117.417 125.142Z" fill="#0062FF"/>
<path d="M144.257 92.6592H100V101.397H144.257V92.6592Z" fill="#E6E6E6"/>
<path d="M144.257 78.8522H100V87.59H144.257V78.8522Z" fill="#E6E6E6"/>
<path d="M144.257 65H100V73.7379H144.257V65Z" fill="#E6E6E6"/>
<path d="M100.943 72.7944H143.313V65.9435H100.943V72.7944Z" fill="white"/>
<path d="M100.943 86.6769H143.313V79.826H100.943V86.6769Z" fill="white"/>
<path d="M100.943 100.453H143.313V93.6024H100.943V100.453Z" fill="white"/>
<path d="M104.652 71.922C106.093 71.922 107.262 70.7535 107.262 69.312C107.262 67.8706 106.093 66.702 104.652 66.702C103.21 66.702 102.042 67.8706 102.042 69.312C102.042 70.7535 103.21 71.922 104.652 71.922Z" fill="#0062FF"/>
<path d="M136.654 68.2908H110.895V68.8582H136.654V68.2908Z" fill="#0062FF"/>
<path d="M136.654 69.7662H110.895V70.3336H136.654V69.7662Z" fill="#0062FF"/>
<path d="M104.652 85.8879C106.093 85.8879 107.262 84.7193 107.262 83.2779C107.262 81.8364 106.093 80.6678 104.652 80.6678C103.21 80.6678 102.042 81.8364 102.042 83.2779C102.042 84.7193 103.21 85.8879 104.652 85.8879Z" fill="#CCCCCC"/>
<path d="M136.654 82.2567H110.895V82.8241H136.654V82.2567Z" fill="#CCCCCC"/>
<path d="M136.654 83.7318H110.895V84.2992H136.654V83.7318Z" fill="#CCCCCC"/>
<path d="M104.652 99.6948C106.093 99.6948 107.262 98.5262 107.262 97.0847C107.262 95.6433 106.093 94.4747 104.652 94.4747C103.21 94.4747 102.042 95.6433 102.042 97.0847C102.042 98.5262 103.21 99.6948 104.652 99.6948Z" fill="#CCCCCC"/>
<path d="M136.654 96.0632H110.895V96.6306H136.654V96.0632Z" fill="#CCCCCC"/>
<path d="M136.654 97.5386H110.895V98.106H136.654V97.5386Z" fill="#CCCCCC"/>
</g>
<defs>
<clipPath id="clip0">
<rect width="156" height="250" fill="white"/>
</clipPath>
</defs>
</svg>
