<svg width="16" height="16" viewBox="0 0 16 16" fill="none" xmlns="http://www.w3.org/2000/svg">
<g clip-path="url(#clip0)">
<path d="M13.6918 0.411067C13.4486 0.299006 13.162 0.342613 12.963 0.52188L11.9133 1.45131C11.8848 1.47673 11.8417 1.47657 11.8133 1.45101L10.385 0.173594C10.1267 -0.0578648 9.73568 -0.0578648 9.47737 0.173594L8.05041 1.44984C8.02171 1.47548 7.97833 1.47548 7.94962 1.44984L6.52252 0.173594C6.2642 -0.057827 5.87314 -0.057827 5.61483 0.173594L4.1864 1.45101C4.15781 1.47657 4.11462 1.47669 4.08588 1.45127L3.03523 0.52188C2.7565 0.274007 2.32959 0.299006 2.08171 0.57774C1.97056 0.702736 1.90974 0.864531 1.91103 1.03177V14.9683C1.90853 15.3419 2.20936 15.6467 2.58294 15.6492C2.7503 15.6504 2.91209 15.5894 3.03713 15.4782L4.08682 14.5487C4.11538 14.5233 4.15846 14.5235 4.18686 14.549L5.6151 15.8264C5.87341 16.0579 6.26447 16.0579 6.52278 15.8264L7.94989 14.5502C7.97859 14.5246 8.02197 14.5246 8.05068 14.5502L9.47778 15.8264C9.73613 16.0578 10.1272 16.0578 10.3855 15.8264L11.814 14.549C11.8426 14.5234 11.8858 14.5233 11.9145 14.5487L12.9651 15.4781C13.244 15.7259 13.6709 15.7007 13.9186 15.4218C14.0296 15.297 14.0903 15.1354 14.0891 14.9683V1.03177C14.0927 0.764042 13.9364 0.519913 13.6918 0.411067ZM4.41499 5.42825H8.18135C8.34843 5.42825 8.48391 5.56372 8.48391 5.73081C8.48391 5.8979 8.34843 6.03337 8.18135 6.03337H4.41499C4.2479 6.03337 4.11243 5.8979 4.11243 5.73081C4.11243 5.56372 4.2479 5.42825 4.41499 5.42825ZM11.5852 10.5718H4.41499C4.2479 10.5718 4.11243 10.4363 4.11243 10.2692C4.11243 10.1021 4.2479 9.96667 4.41499 9.96667H11.5852C11.7522 9.96667 11.8877 10.1021 11.8877 10.2692C11.8877 10.4363 11.7522 10.5718 11.5852 10.5718ZM11.5852 8.30258H4.41499C4.2479 8.30258 4.11243 8.16711 4.11243 8.00002C4.11243 7.83293 4.2479 7.69746 4.41499 7.69746H11.5852C11.7522 7.69746 11.8877 7.83293 11.8877 8.00002C11.8877 8.16711 11.7522 8.30258 11.5852 8.30258Z" fill="#2F3441"/>
</g>
<defs>
<clipPath id="clip0">
<rect width="16" height="16" fill="white"/>
</clipPath>
</defs>
</svg>
